<svg xmlns="http://www.w3.org/2000/svg" viewBox="0 0 24 24" width="28" height="28">
    <style>
        .trophy {
            fill: #FFD43B;
        }
        .sparkle {
            fill: #ffffff;
            animation: flash 1.2s ease-in-out infinite alternate;
        }
        .sparkle-2 {
            fill: #ffffff;
            animation: flash 1.2s ease-in-out infinite alternate;
            animation-delay: 0.6s;
        }
        @keyframes flash {
            0% { opacity: 0.1; transform: scale(0.5); }
            100% { opacity: 1; transform: scale(1.2); }
        }
    </style>
    <path class="trophy" d="M19 5h-2V3H7v2H5c-1.1 0-2 .9-2 2v3c0 2.44 1.72 4.48 4 4.9V17c0 1.1.9 2 2 2h2v2H9v2h6v-2h-3v-2h2c1.1 0 2-.9 2-2v-2.1c2.28-.42 4-2.46 4-4.9V7c0-1.1-.9-2-2-2zM5 10V7h2v3H5zm14 0h-2V7h2v3z"/>
    <path class="sparkle" d="M7 2.5l.8 1.2 1.2.8-1.2.8-.8 1.2-.8-1.2-1.2-.8 1.2-.8zm11 15l.5.8.8.5-.8.5-.5.8-.5-.8-.8-.5.8-.5z" />
    <path class="sparkle-2" d="M17 1.5l.5.8.8.5-.8.5-.5.8-.5-.8-.8-.5.8-.5z" />
</svg>
