<svg xmlns="http://www.w3.org/2000/svg" viewBox="0 0 24 24" width="28" height="28">
    <style>
        .brain {
            fill: none;
            stroke: #70A5FD;
            stroke-width: 1.5;
            stroke-linecap: round;
            stroke-linejoin: round;
        }
        .node {
            fill: #38BDAE;
            animation: pulse-node 1.5s ease-in-out infinite;
        }
        .node-2 {
            fill: #BF91F3;
            animation: pulse-node 1.5s ease-in-out infinite;
            animation-delay: 0.75s;
        }
        @keyframes pulse-node {
            0%, 100% { r: 1.5; opacity: 0.4; }
            50% { r: 2.5; opacity: 1; }
        }
    </style>
    <path class="brain" d="M12 5a3.5 3.5 0 0 0-3.5 3.5c0 .77.25 1.48.67 2.06A3.5 3.5 0 0 0 7 14c0 1.93 1.57 3.5 3.5 3.5.34 0 .67-.05 1-.14V19a1 1 0 0 0 1 1h1a1 1 0 0 0 1-1v-1.64c.33.09.66.14 1 .14 1.93 0 3.5-1.57 3.5-3.5a3.5 3.5 0 0 0-2.17-3.44c.42-.58.67-1.29.67-2.06A3.5 3.5 0 0 0 12 5z"/>
    <path class="brain" d="M12 5v12.5"/>
    <circle class="node" cx="9" cy="8" r="2" />
    <circle class="node-2" cx="15" cy="9" r="2" />
    <circle class="node" cx="8" cy="13" r="2" />
    <circle class="node-2" cx="16" cy="13" r="2" />
</svg>
